/* XPM */
static char *_32ad50c2de34a0fbbf0d9d549daceadpqOyYZHG9pSUkNBJ[] = {
/* columns rows colors chars-per-pixel */
"32 32 13 1 ",
"  c None",
". c #6A0000",
"X c #74570A",
"o c #8B0000",
"O c #AD0000",
"+ c #D60000",
"@ c red",
"# c #906C05",
"$ c #FC5556",
"% c #AD8100",
"& c #CA9911",
"* c #E7AE13",
"= c #FFD500",
/* pixels */
"                                ",
"                                ",
"                                ",
"                                ",
"                                ",
"                                ",
"                                ",
"                                ",
"         #............X         ",
"        #*+OOOOOOOOOOO*X        ",
"        #=@+++++++++++=X        ",
"        #=$@@@@@@@@@@@=X        ",
"        #=$@@@@@@@@@@@=X        ",
"        #=$$$$$$@$@$@@=X        ",
"        #=$@@@@@@@@@@@=X        ",
"        #*@+++++++++++*X        ",
"        #*+OOOO==OOOOO&X        ",
"        #&+OOO=***OOOO&X        ",
"        #&&&&#*%%%X&&&&X        ",
"        XXXXXX%XX%XXXXXX        ",
"        #%....#%%X....%X        ",
"        #&.ooo.XX.oooo%X        ",
"        #&oOOOO..OOOOO%X        ",
"        #&oOOOOOOOOOOO%X        ",
"        #%%%%%%%%%%%%%%X        ",
"        XXXXXXXXXXXXXXXX        ",
"                                ",
"                                ",
"                                ",
"                                ",
"                                ",
"                                "
};
