/* XPM */
static char *_855f7ea76124164fce72959aa580099orEoKn8tZvs19bWc[] = {
/* columns rows colors chars-per-pixel */
"32 32 91 1 ",
"  c None",
". c #0C0431",
"X c #593B14",
"o c #6C3B0A",
"O c #704418",
"+ c #704B27",
"@ c #664C31",
"# c #161B7F",
"$ c #5A5959",
"% c gray37",
"& c #5F5F5F",
"* c #6B6056",
"= c #574B64",
"- c #5C5968",
"; c #66646D",
": c #707274",
"> c #777777",
", c #7A7A7C",
"< c #7C7C7C",
"1 c gray49",
"2 c #7E7E7E",
"3 c #865B2F",
"4 c #A79446",
"5 c #A99853",
"6 c #9B8168",
"7 c #80807F",
"8 c #A88E74",
"9 c #0F1682",
"0 c #808080",
"q c #818180",
"w c gray51",
"e c #838383",
"r c #8E8F8D",
"t c #8F908D",
"y c #9A9A9A",
"u c #A4A19D",
"i c #A5A19D",
"p c #B6A89A",
"a c #B7A99B",
"s c #BAAC9E",
"d c #B7B59E",
"f c gray66",
"g c #AAAAAA",
"h c gray67",
"j c #AAABAC",
"k c #ACACAC",
"l c #AEAEAF",
"z c gray",
"x c #C9BBAD",
"c c #C0C0C0",
"v c #C9C7C3",
"b c #C4C6CA",
"n c gray79",
"m c gray80",
"M c #CFCFD1",
"N c #CCD2DE",
"B c gray82",
"V c #D2D2D2",
"C c #D2D3D3",
"Z c LightGray",
"A c #D4D3D3",
"S c #D5D4D2",
"D c gray83",
"F c #D7D7D7",
"G c #D8D7D7",
"H c #D1D7DD",
"J c #D8D8D8",
"K c #DADADA",
"L c gray86",
"P c #DEDDDB",
"I c gainsboro",
"U c gray87",
"Y c #DBDFE4",
"T c gray89",
"R c gray90",
"E c #E3E7EB",
"W c #E7E8E8",
"Q c #E1E8EE",
"! c #E5E9EE",
"~ c #E9E9E9",
"^ c #EAEAEA",
"/ c gray93",
"( c #F2F2F4",
") c #F4F4F4",
"_ c gray96",
"` c gray97",
"' c #F8F8F8",
"] c gray98",
"[ c #FBFBFB",
"{ c #FFFFFA",
"} c white",
/* pixels */
"                                ",
"                                ",
"                                ",
"                                ",
"                                ",
"           5                    ",
"           #  MKB               ",
"            9 GFF               ",
"            4XNWA               ",
"            d=+vb               ",
"            }{8OsE              ",
"            }(Qaox!             ",
"            }RSYa3u             ",
"           `' BPH6@             ",
"           }`  zli*             ",
"           }`  ffj:$            ",
"           '} Unlfq&            ",
"           '/nTFcy<&            ",
"             BUFl><             ",
"              ^Fqq<             ",
"             B^  t-.            ",
"             `B <r;             ",
"             [  0q              ",
"            ZB  <<              ",
"            FB   0              ",
"            FB   <<             ",
"            LZ   <e<            ",
"                                ",
"                                ",
"                                ",
"                                ",
"                                "
};
