/* XPM */
static char *c985a4fbc5404af3d04618bc20747609v79PcuO57CXy8FSI[] = {
/* columns rows colors chars-per-pixel */
"32 32 132 2 ",
"   c #96BC20",
".  c #90B41F",
"X  c #A5C92E",
"o  c #88AB1D",
"O  c #A0C52D",
"+  c #90B51F",
"@  c #97BE21",
"#  c #A9CE2F",
"$  c #99C024",
"%  c #98BE21",
"&  c #97BD20",
"*  c #9BC122",
"=  c #98BF21",
"-  c #A3CB26",
";  c #A8D128",
":  c #A2C82E",
">  c #A6CA2E",
",  c #A9CD2F",
"<  c #9AC122",
"1  c #B1D833",
"2  c #99C021",
"3  c #91B622",
"4  c #AAD429",
"5  c #9DC526",
"6  c #A3C92E",
"7  c #97BD21",
"8  c #A6CF27",
"9  c #A7CB2F",
"0  c #A9D229",
"q  c #98BD25",
"w  c #94B921",
"e  c #9CC323",
"r  c #9AC124",
"t  c #98BE26",
"y  c #A4CD2A",
"u  c #A1C925",
"i  c #9EC523",
"p  c #91B51F",
"a  c #91B620",
"s  c #9BC222",
"d  c #ACD432",
"f  c #A3CC29",
"g  c #B3DB34",
"h  c #A2CA28",
"j  c #9BC127",
"k  c #A0C825",
"l  c #9DC426",
"z  c #A8D228",
"x  c #A5CD2A",
"c  c #9AC024",
"v  c #A7D028",
"b  c #9DC423",
"n  c #91B520",
"m  c #9CC325",
"M  c #98BE23",
"N  c #A0C828",
"B  c #A4CC29",
"V  c #A1C928",
"C  c #9CC228",
"Z  c #ABD52A",
"A  c #ABD429",
"S  c #9FC429",
"D  c #95BA22",
"F  c #A0C827",
"G  c #A2CA25",
"H  c #A5CE2A",
"J  c #ACD62A",
"K  c #ABD529",
"L  c #9CC227",
"P  c #A5CE27",
"I  c #A9D228",
"U  c #A3C82E",
"Y  c #AACF30",
"T  c #A2CA26",
"R  c #B8E136",
"E  c #ACD52A",
"W  c #B9E236",
"Q  c #9FC727",
"!  c #9AC022",
"~  c #A8CD2F",
"^  c #A5CD27",
"/  c #AAD329",
"(  c #9FC624",
")  c #99BF24",
"_  c #89AC1D",
"`  c #9FC724",
"'  c #9BC125",
"]  c #B3DD35",
"[  c #B3DA33",
"{  c #9ABF26",
"}  c #96BB22",
"|  c #A4CD29",
" . c #A9D329",
".. c #B0DA34",
"X. c #9EC524",
"o. c #9EC429",
"O. c #A6CB2F",
"+. c #B5DD34",
"@. c #A7CE30",
"#. c #9CC423",
"$. c #9FC529",
"%. c #8AAE1E",
"&. c #A6CE27",
"*. c #B8E035",
"=. c #9EC624",
"-. c #96BD20",
";. c #9EC328",
":. c #A2CB29",
">. c #AED633",
",. c #B2DA33",
"<. c #AFD532",
"1. c #92B720",
"2. c #8FB321",
"3. c #8AAD1E",
"4. c #9FC627",
"5. c #A9D031",
"6. c #B3DA34",
"7. c #A4CD26",
"8. c #A4CC26",
"9. c #93B720",
"0. c #99C022",
"q. c #B2DC35",
"w. c #B6DF35",
"e. c #A3CC26",
"r. c #99BF21",
"t. c #97BD23",
"y. c #ADD532",
"u. c #98BF23",
"i. c #A0C824",
"p. c #8EB120",
"a. c #89AC1E",
"s. c white",
/* pixels */
"  .     .     X     . .     .     o   .         O             . ",
"    . .   .     O   X           .     .   o     . X   X   . .   ",
". . .     .   .       o   .   X     + @   .     .       .     . ",
".     O     .   o   . o   .   O   . # $ %   .       .   o   X   ",
"  X O     .     & * . & % &     . = - ; : X   .   o . .   . O X ",
"  X       .   > , ; < = 1 2 & & 2 3 4 5 % 6 & X   o .   o     O ",
"      . o   . 7 6 1 8 9 0 q w e r t y u i 8 6 p a       .     . ",
"  o     o p s + 2 d f g h j k l z 4 x c - v 2 b b n       . .   ",
".   .   .   2 m M N y 4 z B V C Z x Z A S D % F G :     X     . ",
"  .   . O > = 8 Z H J Z K K y H J J J y L 7 P I i   X . .       ",
". o .     U Y T R E J H J H J J J W J Z 0 Q Z m * @   = % . .   ",
". o       ! : ~ ^ / y J J J H J J J W 4 P u v Q ( m P ) _ .     ",
"  . .   n ` ' k ; x J J ] J J W H J ] 4 [ l y E y { } @         ",
"  .     . 2 h L K J J J J W H ] H J J | z /  ...0 X.p     X   . ",
"    X     > 2 o.H J J H J J J J J H J x A f ; T U X     X O     ",
".     O.` +.P J J ] J J J H J H H J J J H o.Z 4 v @.X   O     . ",
"  .   + #.^ / x J J W J J J H H J J $.J J $.J y ; } O   .   o   ",
"  .       %.l 4 J J ] J W J J $.H J J J J H P P &.b %     .     ",
"      X   % s V Z J J H J J H $.J Z *.4 A Z P ! w u =.a       o ",
"  X O   -.} 0 ;.E B Z J H J J J Z :.>.,.v ; <.u =.a %.n   O     ",
"X O     . 1.i 2.< 3.$ K J J J x 4 4.` 5.l 6.w 7 a   o       X   ",
"O         & @ w b 7.0 f E W Z 4 z 8.M :.0 v - w @ .   . .   O   ",
"  .   .     X   7 9.0.T K q.w.&.e.1 r.=.I | v e 3..     o     . ",
".       .   O -.9 s t.< I  .y.M Y u.% . X.i.k = -.        .     ",
"  o   o .     . + -.7 p.l ( & < & s 0.& & > @ .     X       .   ",
"    . o     .     .   = < 1.& & . a.p       O X   X O     . o   ",
"  .             .   X           .       . .   O   O . .       . ",
"    O     X   X   . O X     X         .   o       . .     .     ",
"  X .     O X     .   O   X . .   X             .   o     X   . ",
"X O     .   O . . .     .     o     O X     X       o .     X   ",
"O   .       .     o         .   .     O   X     o .     .   O   ",
"      .   . .   .     X   . .   .   .   .   . .     .     . .   "
};
