/* XPM */
static char *_731f31accb74ae3bf845d6cd6886db4CjLgiIp3efOaIxJx[] = {
/* columns rows colors chars-per-pixel */
"32 32 2 1 ",
"  c None",
". c #333234",
/* pixels */
"                                ",
"                                ",
"             .......            ",
"          ....  .  ....         ",
"         ...    .    ...        ",
"       ..  . ....... .  ..      ",
"      ..   ...  .  ...   ..     ",
"     ...  .    . .    .  ...    ",
"     .  .. ..  . .  .. ..  .    ",
"    .   .  .  .   .  .  .   .   ",
"   ..  ..     .   .     ..  ..  ",
"   ...........................  ",
"   .  . .   ..  .  ..   . .  .  ",
"  .. .. .   .   .   .   . .. .. ",
"  .  .   . .  .. ..  . .   .  . ",
"  .  . . ...  . . .  ... . .  . ",
"  .... .  . .. ... .. .  . .... ",
"  .  . . ...  . . .  ... . .  . ",
"  .  .   . .  .. ..  . .   .  . ",
"  .. .. .   .   .   .   . .. .. ",
"   .  . .   ..  .  ..   . .  .  ",
"   ...........................  ",
"   ..  ..     .   .     ..  ..  ",
"    .   .  .  .   .  .  .   .   ",
"     .  .. ..  . .  .. ..  .    ",
"     ...  .    . .    .  ...    ",
"      ..   ...  .  ...   ..     ",
"       ..  . ....... .  ..      ",
"         ...    .    ...        ",
"          ....  .  ....         ",
"             .......            ",
"                                "
};
